<?xml version="1.0" encoding="UTF-8" standalone="no"?>
<!-- Created with Inkscape (http://www.inkscape.org/) -->

<svg
   width="270.84442mm"
   height="85.022583mm"
   viewBox="0 0 270.84442 85.022583"
   version="1.1"
   id="svg5679"
   xml:space="preserve"
   inkscape:version="1.2.2 (732a01da63, 2022-12-09)"
   sodipodi:docname="RushHourCards3.svg"
   xmlns:inkscape="http://www.inkscape.org/namespaces/inkscape"
   xmlns:sodipodi="http://sodipodi.sourceforge.net/DTD/sodipodi-0.dtd"
   xmlns="http://www.w3.org/2000/svg"
   xmlns:svg="http://www.w3.org/2000/svg"><sodipodi:namedview
     id="namedview5681"
     pagecolor="#ffffff"
     bordercolor="#666666"
     borderopacity="1.0"
     inkscape:showpageshadow="2"
     inkscape:pageopacity="0.0"
     inkscape:pagecheckerboard="0"
     inkscape:deskcolor="#d1d1d1"
     inkscape:document-units="mm"
     showgrid="false"
     inkscape:zoom="0.2102413"
     inkscape:cx="-42.807954"
     inkscape:cy="192.63579"
     inkscape:window-width="3840"
     inkscape:window-height="2066"
     inkscape:window-x="3829"
     inkscape:window-y="-11"
     inkscape:window-maximized="1"
     inkscape:current-layer="layer1" /><defs
     id="defs5676" /><g
     inkscape:label="Layer 1"
     inkscape:groupmode="layer"
     id="layer1"
     transform="translate(34.744252,-98.43786)"><g
       id="g6406"
       transform="matrix(0.35277778,0,0,0.35277778,-36.331734,96.950355)"><path
         d="M 4.5354,245.19 V 4.252 H 188.7848 V 245.19 Z"
         style="fill:none;stroke:#ff0000;stroke-width:0.0709;stroke-linecap:butt;stroke-linejoin:miter;stroke-dasharray:none"
         id="path5800" /><path
         d="M 18.7401,48.7556 V 204.6427 H 174.5906 V 48.7556 Z"
         style="fill:none;stroke:#000000;stroke-width:1.4173;stroke-linecap:butt;stroke-linejoin:miter;stroke-dasharray:none"
         id="path5802" /><path
         d="M 23.1245,53.1921 V 75.3919 H 45.3243 V 53.1921 Z"
         style="fill:none;stroke:#000000;stroke-width:0.5;stroke-linecap:butt;stroke-linejoin:miter;stroke-dasharray:none"
         id="path5804" /><path
         d="m 23.1245,78.692 v 22.1998 H 45.3243 V 78.692 Z"
         style="fill:none;stroke:#000000;stroke-width:0.5;stroke-linecap:butt;stroke-linejoin:miter;stroke-dasharray:none"
         id="path5806" /><path
         d="m 23.1664,129.0095 v 22.1999 h 22.1998 v -22.1999 z"
         style="fill:none;stroke:#000000;stroke-width:0.5;stroke-linecap:butt;stroke-linejoin:miter;stroke-dasharray:none"
         id="path5808" /><path
         d="m 23.1664,154.5094 v 22.1999 h 22.1998 v -22.1999 z"
         style="fill:none;stroke:#000000;stroke-width:0.5;stroke-linecap:butt;stroke-linejoin:miter;stroke-dasharray:none"
         id="path5810" /><path
         d="m 23.2084,179.7925 v 22.1998 h 22.1998 v -22.1998 z"
         style="fill:none;stroke:#000000;stroke-width:0.5;stroke-linecap:butt;stroke-linejoin:miter;stroke-dasharray:none"
         id="path5812" /><path
         d="M 48.7259,53.1921 V 75.3919 H 70.9257 V 53.1921 Z"
         style="fill:none;stroke:#000000;stroke-width:0.5;stroke-linecap:butt;stroke-linejoin:miter;stroke-dasharray:none"
         id="path5814" /><path
         d="m 48.7259,78.692 v 22.1998 H 70.9257 V 78.692 Z"
         style="fill:none;stroke:#000000;stroke-width:0.5;stroke-linecap:butt;stroke-linejoin:miter;stroke-dasharray:none"
         id="path5816" /><path
         d="m 48.7678,129.0095 v 22.1999 h 22.1998 v -22.1999 z"
         style="fill:none;stroke:#000000;stroke-width:0.5;stroke-linecap:butt;stroke-linejoin:miter;stroke-dasharray:none"
         id="path5818" /><path
         d="m 48.7678,154.5094 v 22.1999 h 22.1998 v -22.1999 z"
         style="fill:none;stroke:#000000;stroke-width:0.5;stroke-linecap:butt;stroke-linejoin:miter;stroke-dasharray:none"
         id="path5820" /><path
         d="m 48.8098,179.7925 v 22.1998 h 22.1998 v -22.1998 z"
         style="fill:none;stroke:#000000;stroke-width:0.5;stroke-linecap:butt;stroke-linejoin:miter;stroke-dasharray:none"
         id="path5822" /><path
         d="M 74.5211,53.1921 V 75.3919 H 96.7209 V 53.1921 Z"
         style="fill:none;stroke:#000000;stroke-width:0.5;stroke-linecap:butt;stroke-linejoin:miter;stroke-dasharray:none"
         id="path5824" /><path
         d="m 74.5211,78.692 v 22.1998 H 96.7209 V 78.692 Z"
         style="fill:none;stroke:#000000;stroke-width:0.5;stroke-linecap:butt;stroke-linejoin:miter;stroke-dasharray:none"
         id="path5826" /><path
         d="m 74.5631,103.9751 v 22.1998 h 22.1998 v -22.1998 z"
         style="fill:none;stroke:#000000;stroke-width:0.5;stroke-linecap:butt;stroke-linejoin:miter;stroke-dasharray:none"
         id="path5828" /><path
         d="m 74.5631,129.0095 v 22.1999 h 22.1998 v -22.1999 z"
         style="fill:none;stroke:#000000;stroke-width:0.5;stroke-linecap:butt;stroke-linejoin:miter;stroke-dasharray:none"
         id="path5830" /><path
         d="m 74.5631,154.5094 v 22.1999 h 22.1998 v -22.1999 z"
         style="fill:none;stroke:#000000;stroke-width:0.5;stroke-linecap:butt;stroke-linejoin:miter;stroke-dasharray:none"
         id="path5832" /><path
         d="m 74.605,179.7925 v 22.1998 h 22.1999 v -22.1998 z"
         style="fill:none;stroke:#000000;stroke-width:0.5;stroke-linecap:butt;stroke-linejoin:miter;stroke-dasharray:none"
         id="path5834" /><path
         d="m 99.7495,53.1921 v 22.1998 h 22.1998 V 53.1921 Z"
         style="fill:none;stroke:#000000;stroke-width:0.5;stroke-linecap:butt;stroke-linejoin:miter;stroke-dasharray:none"
         id="path5836" /><path
         d="m 99.7495,78.692 v 22.1998 h 22.1998 V 78.692 Z"
         style="fill:none;stroke:#000000;stroke-width:0.5;stroke-linecap:butt;stroke-linejoin:miter;stroke-dasharray:none"
         id="path5838" /><path
         d="m 99.7914,103.9751 v 22.1998 h 22.1998 v -22.1998 z"
         style="fill:none;stroke:#000000;stroke-width:0.5;stroke-linecap:butt;stroke-linejoin:miter;stroke-dasharray:none"
         id="path5840" /><path
         d="m 99.7914,129.0095 v 22.1999 h 22.1998 v -22.1999 z"
         style="fill:none;stroke:#000000;stroke-width:0.5;stroke-linecap:butt;stroke-linejoin:miter;stroke-dasharray:none"
         id="path5842" /><path
         d="m 99.7914,154.5094 v 22.1999 h 22.1998 v -22.1999 z"
         style="fill:none;stroke:#000000;stroke-width:0.5;stroke-linecap:butt;stroke-linejoin:miter;stroke-dasharray:none"
         id="path5844" /><path
         d="m 99.8334,179.7925 v 22.1998 h 22.1998 v -22.1998 z"
         style="fill:none;stroke:#000000;stroke-width:0.5;stroke-linecap:butt;stroke-linejoin:miter;stroke-dasharray:none"
         id="path5846" /><path
         d="m 124.9778,53.1921 v 22.1998 h 22.1998 V 53.1921 Z"
         style="fill:none;stroke:#000000;stroke-width:0.5;stroke-linecap:butt;stroke-linejoin:miter;stroke-dasharray:none"
         id="path5848" /><path
         d="m 124.9778,78.692 v 22.1998 h 22.1998 V 78.692 Z"
         style="fill:none;stroke:#000000;stroke-width:0.5;stroke-linecap:butt;stroke-linejoin:miter;stroke-dasharray:none"
         id="path5850" /><path
         d="m 125.0198,103.9751 v 22.1998 h 22.1998 v -22.1998 z"
         style="fill:none;stroke:#000000;stroke-width:0.5;stroke-linecap:butt;stroke-linejoin:miter;stroke-dasharray:none"
         id="path5852" /><path
         d="m 125.0198,129.0095 v 22.1999 h 22.1998 v -22.1999 z"
         style="fill:none;stroke:#000000;stroke-width:0.5;stroke-linecap:butt;stroke-linejoin:miter;stroke-dasharray:none"
         id="path5854" /><path
         d="m 125.0198,154.5094 v 22.1999 h 22.1998 v -22.1999 z"
         style="fill:none;stroke:#000000;stroke-width:0.5;stroke-linecap:butt;stroke-linejoin:miter;stroke-dasharray:none"
         id="path5856" /><path
         d="m 125.0617,179.7925 v 22.1998 h 22.1998 v -22.1998 z"
         style="fill:none;stroke:#000000;stroke-width:0.5;stroke-linecap:butt;stroke-linejoin:miter;stroke-dasharray:none"
         id="path5858" /><path
         d="m 149.6392,53.1921 v 22.1998 h 22.1999 V 53.1921 Z"
         style="fill:none;stroke:#000000;stroke-width:0.5;stroke-linecap:butt;stroke-linejoin:miter;stroke-dasharray:none"
         id="path5860" /><path
         d="m 149.6392,78.692 v 22.1998 h 22.1999 V 78.692 Z"
         style="fill:none;stroke:#000000;stroke-width:0.5;stroke-linecap:butt;stroke-linejoin:miter;stroke-dasharray:none"
         id="path5862" /><path
         d="m 149.6812,103.9751 v 22.1998 h 22.1998 v -22.1998 z"
         style="fill:none;stroke:#000000;stroke-width:0.5;stroke-linecap:butt;stroke-linejoin:miter;stroke-dasharray:none"
         id="path5864" /><path
         d="m 149.6812,129.0095 v 22.1999 h 22.1998 v -22.1999 z"
         style="fill:none;stroke:#000000;stroke-width:0.5;stroke-linecap:butt;stroke-linejoin:miter;stroke-dasharray:none"
         id="path5866" /><path
         d="m 149.6812,154.5094 v 22.1999 h 22.1998 v -22.1999 z"
         style="fill:none;stroke:#000000;stroke-width:0.5;stroke-linecap:butt;stroke-linejoin:miter;stroke-dasharray:none"
         id="path5868" /><path
         d="m 149.7231,179.7925 v 22.1998 h 22.1999 v -22.1998 z"
         style="fill:none;stroke:#000000;stroke-width:0.5;stroke-linecap:butt;stroke-linejoin:miter;stroke-dasharray:none"
         id="path5870" /><path
         d="m 95.0216,214.7987 a 11.1002,11.1002 0 0 1 11.1002,11.1002 11.1002,11.1002 0 1 1 -11.1002,-11.1002 z"
         style="fill:none;stroke:#000000;stroke-width:0.7087;stroke-linecap:butt;stroke-linejoin:miter;stroke-dasharray:none"
         id="path5872" /><text
         x="89.885498"
         y="229.97279"
         id="text5876"><tspan
           font-family="'Proxima Nova Rg'"
           font-size="12px"
           fill="#000000"
           id="tspan5874">15</tspan></text><path
         d="M 24.7181,36.2808 29.807,17.2475 h 8.8064 c 1.6322,0 2.8408,0.1551 3.6166,0.4697 0.781,0.3101 1.3226,0.8904 1.627,1.7323 0.3032,0.8462 0.29,1.8784 -0.0346,3.0924 -0.2819,1.0544 -0.729,1.9671 -1.3399,2.7336 -0.6082,0.7709 -1.3314,1.3912 -2.1721,1.8697 -0.5303,0.3012 -1.2189,0.5538 -2.0565,0.7532 0.5662,0.2347 0.9625,0.4651 1.1863,0.6999 0.1497,0.1551 0.3423,0.4918 0.5763,1.0013 0.2301,0.5095 0.3715,0.9039 0.4202,1.183 l 1.0979,5.4982 H 35.5628 L 34.2919,30.4769 C 34.135,29.7237 33.9468,29.2364 33.7286,29.0104 33.4245,28.718 33.0296,28.5718 32.548,28.5718 h -0.4658 l -2.0612,7.709 z m 8.3236,-11.2977 h 2.2334 c 0.2388,0 0.7324,-0.0886 1.4712,-0.2614 0.3706,-0.0753 0.7105,-0.2747 1.0159,-0.5981 0.3094,-0.3234 0.5193,-0.6911 0.6306,-1.1077 0.1647,-0.6158 0.1162,-1.0899 -0.1465,-1.4177 -0.2615,-0.3323 -0.8745,-0.4962 -1.8419,-0.4962 h -2.3251 z m 24.0034,-7.7356 h 5.2791 l -3.0313,11.3376 c -0.2997,1.1209 -0.7433,2.1842 -1.3243,3.181 -0.5823,1.0013 -1.3093,1.8742 -2.1822,2.6229 -0.8731,0.7487 -1.7175,1.2715 -2.5358,1.5772 -1.1396,0.4209 -2.4307,0.6336 -3.8679,0.6336 -0.832,0 -1.722,-0.0664 -2.6709,-0.195 -0.9491,-0.1285 -1.7045,-0.3854 -2.2623,-0.7709 -0.5578,-0.3854 -1.0173,-0.9304 -1.3731,-1.6392 -0.3599,-0.7089 -0.5387,-1.44 -0.5403,-2.1931 -0.0032,-1.2095 0.1204,-2.2817 0.3703,-3.2165 l 3.0313,-11.3376 h 5.279 l -3.1036,11.6078 c -0.2772,1.0367 -0.2351,1.8475 0.1233,2.4279 0.3611,0.5848 0.9996,0.8772 1.9152,0.8772 0.9038,0 1.6934,-0.2879 2.365,-0.8639 0.6663,-0.5715 1.1431,-1.3868 1.425,-2.4412 z m 2.4617,12.7376 5.1098,-0.35 c -0.1341,0.9038 -0.096,1.5949 0.1129,2.0646 0.3405,0.7664 1.0138,1.1519 2.0249,1.1519 0.7525,0 1.3859,-0.1949 1.8973,-0.5892 0.5156,-0.3944 0.8406,-0.8507 0.9792,-1.3691 0.1315,-0.4918 0.0589,-0.9348 -0.2231,-1.3246 -0.2819,-0.39 -1.0845,-0.7532 -2.4043,-1.1033 -2.163,-0.5759 -3.6051,-1.3468 -4.3354,-2.3082 -0.7394,-0.957 -0.9101,-2.1798 -0.5121,-3.6685 0.2606,-0.9746 0.7618,-1.8962 1.5036,-2.7646 0.7429,-0.8727 1.6897,-1.5551 2.8456,-2.0513 1.1558,-0.4962 2.6235,-0.7443 4.403,-0.7443 2.1857,0 3.729,0.4519 4.6327,1.3602 0.905,0.9038 1.2008,2.3436 0.8914,4.3197 l -5.0561,0.3278 c 0.0996,-0.8639 -0.0109,-1.4931 -0.3287,-1.8829 -0.3205,-0.3944 -0.8536,-0.5893 -1.5981,-0.5893 -0.6131,0 -1.118,0.1462 -1.5055,0.4342 -0.3876,0.288 -0.6376,0.6425 -0.7489,1.0589 -0.0805,0.3012 -0.0254,0.5715 0.1603,0.8152 0.1753,0.2525 0.7029,0.4829 1.5765,0.7 2.1609,0.5538 3.6627,1.1165 4.5064,1.6836 0.8476,0.5671 1.389,1.2671 1.6178,2.1089 0.23,0.8374 0.2058,1.7766 -0.0726,2.8178 -0.3257,1.2184 -0.9292,2.3437 -1.8104,3.376 -0.8839,1.0279 -1.9375,1.812 -3.1706,2.3437 -1.2289,0.5317 -2.6696,0.7975 -4.3257,0.7975 -2.9063,0 -4.7538,-0.6247 -5.5396,-1.8697 -0.7858,-1.2449 -0.9959,-2.8266 -0.6303,-4.745 z m 19.596,-12.7376 h 5.279 l -1.7769,6.6457 h 5.7807 l 1.7769,-6.6457 h 5.3029 l -5.0889,19.0333 h -5.3029 l 2.0611,-7.709 H 81.354 l -2.0611,7.709 h -5.279 z m 23.881,0 h 5.279 l -1.7769,6.6457 h 5.7807 l 1.7769,-6.6457 h 5.3029 l -5.0889,19.0333 h -5.3029 l 2.0611,-7.709 h -5.7807 l -2.0611,7.709 h -5.279 z m 14.6656,9.5299 c 0.8304,-3.1057 2.2534,-5.5247 4.2721,-7.2527 2.0198,-1.7323 4.4165,-2.5962 7.1954,-2.5962 2.8466,0 4.8127,0.8507 5.8998,2.5475 1.0858,1.7013 1.2169,4.0849 0.3984,7.1463 -0.5947,2.2241 -1.416,4.0451 -2.469,5.4672 -1.0531,1.4222 -2.3247,2.5299 -3.8067,3.3229 -1.486,0.793 -3.1759,1.1874 -5.0749,1.1874 -1.927,0 -3.4322,-0.3412 -4.5157,-1.0234 -1.0785,-0.6867 -1.8166,-1.7678 -2.2053,-3.2476 -0.3897,-1.4753 -0.2888,-3.3273 0.3059,-5.5514 z m 5.2755,0.0134 c -0.5129,1.9183 -0.56,3.3006 -0.143,4.138 0.4211,0.8373 1.1844,1.2582 2.2912,1.2582 1.1347,0 2.1286,-0.412 2.9688,-1.2317 0.8454,-0.824 1.5492,-2.2949 2.119,-4.426 0.4786,-1.7899 0.5015,-3.0968 0.0729,-3.9209 -0.4314,-0.8285 -1.201,-1.2406 -2.3158,-1.2406 -1.0669,0 -2.0394,0.4209 -2.9082,1.2583 -0.8728,0.8373 -1.5673,2.2285 -2.0849,4.1647 z m 26.979,-9.5433 h 5.2791 l -3.0313,11.3376 c -0.2997,1.1209 -0.7433,2.1842 -1.3243,3.181 -0.5823,1.0013 -1.3093,1.8742 -2.1823,2.6229 -0.873,0.7487 -1.7174,1.2715 -2.5357,1.5772 -1.1396,0.4209 -2.4307,0.6336 -3.8679,0.6336 -0.8321,0 -1.722,-0.0664 -2.671,-0.195 -0.949,-0.1285 -1.7044,-0.3854 -2.2622,-0.7709 -0.5578,-0.3854 -1.0173,-0.9304 -1.3731,-1.6392 -0.36,-0.7089 -0.5387,-1.44 -0.5404,-2.1931 -0.003,-1.2095 0.1204,-2.2817 0.3704,-3.2165 l 3.0313,-11.3376 h 5.2789 l -3.1035,11.6078 c -0.2772,1.0367 -0.2351,1.8475 0.1232,2.4279 0.3612,0.5848 0.9996,0.8772 1.9153,0.8772 0.9037,0 1.6933,-0.2879 2.3649,-0.8639 0.6664,-0.5715 1.1431,-1.3868 1.4251,-2.4412 z m 1.7577,19.0333 5.0889,-19.0333 h 8.8064 c 1.6323,0 2.8409,0.1551 3.6167,0.4697 0.781,0.3101 1.3225,0.8904 1.627,1.7323 0.3032,0.8462 0.29,1.8784 -0.0346,3.0924 -0.2819,1.0544 -0.729,1.9671 -1.34,2.7336 -0.6082,0.7709 -1.3314,1.3912 -2.172,1.8697 -0.5304,0.3012 -1.219,0.5538 -2.0566,0.7532 0.5663,0.2347 0.9625,0.4651 1.1863,0.6999 0.1497,0.1551 0.3424,0.4918 0.5764,1.0013 0.23,0.5095 0.3715,0.9039 0.4202,1.183 l 1.0978,5.4982 h -5.9717 l -1.2709,-5.8039 c -0.1569,-0.7532 -0.3451,-1.2405 -0.5634,-1.4665 -0.304,-0.2924 -0.6989,-0.4386 -1.1806,-0.4386 h -0.4658 l -2.0611,7.709 z m 8.3236,-11.2977 h 2.2334 c 0.2389,0 0.7324,-0.0886 1.4713,-0.2614 0.3705,-0.0753 0.7104,-0.2747 1.0158,-0.5981 0.3095,-0.3234 0.5193,-0.6911 0.6307,-1.1077 0.1646,-0.6158 0.1162,-1.0899 -0.1465,-1.4177 -0.2615,-0.3323 -0.8746,-0.4962 -1.842,-0.4962 h -2.325 z"
         style="fill:#000000;fill-rule:evenodd"
         id="path5878" /><path
         d="M 199.0491,245.19 V 4.252 H 383.2985 V 245.19 Z"
         style="fill:none;stroke:#ff0000;stroke-width:0.0709;stroke-linecap:butt;stroke-linejoin:miter;stroke-dasharray:none"
         id="path5880" /><path
         d="M 213.2538,48.7556 V 204.6427 H 369.1043 V 48.7556 Z"
         style="fill:none;stroke:#000000;stroke-width:1.4173;stroke-linecap:butt;stroke-linejoin:miter;stroke-dasharray:none"
         id="path5882" /><path
         d="M 217.6381,53.1921 V 75.3919 H 239.838 V 53.1921 Z"
         style="fill:none;stroke:#000000;stroke-width:0.5;stroke-linecap:butt;stroke-linejoin:miter;stroke-dasharray:none"
         id="path5884" /><path
         d="m 217.6381,78.692 v 22.1998 H 239.838 V 78.692 Z"
         style="fill:none;stroke:#000000;stroke-width:0.5;stroke-linecap:butt;stroke-linejoin:miter;stroke-dasharray:none"
         id="path5886" /><path
         d="m 217.6801,103.9751 v 22.1998 h 22.1998 v -22.1998 z"
         style="fill:none;stroke:#000000;stroke-width:0.5;stroke-linecap:butt;stroke-linejoin:miter;stroke-dasharray:none"
         id="path5888" /><path
         d="m 217.6801,129.0095 v 22.1999 h 22.1998 v -22.1999 z"
         style="fill:none;stroke:#000000;stroke-width:0.5;stroke-linecap:butt;stroke-linejoin:miter;stroke-dasharray:none"
         id="path5890" /><path
         d="m 217.6801,154.5094 v 22.1999 h 22.1998 v -22.1999 z"
         style="fill:none;stroke:#000000;stroke-width:0.5;stroke-linecap:butt;stroke-linejoin:miter;stroke-dasharray:none"
         id="path5892" /><path
         d="m 217.722,179.7925 v 22.1998 h 22.1999 v -22.1998 z"
         style="fill:none;stroke:#000000;stroke-width:0.5;stroke-linecap:butt;stroke-linejoin:miter;stroke-dasharray:none"
         id="path5894" /><path
         d="m 243.2395,53.1921 v 22.1998 h 22.1998 V 53.1921 Z"
         style="fill:none;stroke:#000000;stroke-width:0.5;stroke-linecap:butt;stroke-linejoin:miter;stroke-dasharray:none"
         id="path5896" /><path
         d="m 243.2395,78.692 v 22.1998 h 22.1998 V 78.692 Z"
         style="fill:none;stroke:#000000;stroke-width:0.5;stroke-linecap:butt;stroke-linejoin:miter;stroke-dasharray:none"
         id="path5898" /><path
         d="m 243.2815,129.0095 v 22.1999 h 22.1998 v -22.1999 z"
         style="fill:none;stroke:#000000;stroke-width:0.5;stroke-linecap:butt;stroke-linejoin:miter;stroke-dasharray:none"
         id="path5900" /><path
         d="m 243.2815,154.5094 v 22.1999 h 22.1998 v -22.1999 z"
         style="fill:none;stroke:#000000;stroke-width:0.5;stroke-linecap:butt;stroke-linejoin:miter;stroke-dasharray:none"
         id="path5902" /><path
         d="m 243.3234,179.7925 v 22.1998 h 22.1998 v -22.1998 z"
         style="fill:none;stroke:#000000;stroke-width:0.5;stroke-linecap:butt;stroke-linejoin:miter;stroke-dasharray:none"
         id="path5904" /><path
         d="m 269.0348,53.1921 v 22.1998 h 22.1998 V 53.1921 Z"
         style="fill:none;stroke:#000000;stroke-width:0.5;stroke-linecap:butt;stroke-linejoin:miter;stroke-dasharray:none"
         id="path5906" /><path
         d="m 269.0348,78.692 v 22.1998 h 22.1998 V 78.692 Z"
         style="fill:none;stroke:#000000;stroke-width:0.5;stroke-linecap:butt;stroke-linejoin:miter;stroke-dasharray:none"
         id="path5908" /><path
         d="m 269.0768,129.0095 v 22.1999 h 22.1998 v -22.1999 z"
         style="fill:none;stroke:#000000;stroke-width:0.5;stroke-linecap:butt;stroke-linejoin:miter;stroke-dasharray:none"
         id="path5910" /><path
         d="m 269.0768,154.5094 v 22.1999 h 22.1998 v -22.1999 z"
         style="fill:none;stroke:#000000;stroke-width:0.5;stroke-linecap:butt;stroke-linejoin:miter;stroke-dasharray:none"
         id="path5912" /><path
         d="m 269.1187,179.7925 v 22.1998 h 22.1998 v -22.1998 z"
         style="fill:none;stroke:#000000;stroke-width:0.5;stroke-linecap:butt;stroke-linejoin:miter;stroke-dasharray:none"
         id="path5914" /><path
         d="M 294.2631,53.1921 V 75.3919 H 316.463 V 53.1921 Z"
         style="fill:none;stroke:#000000;stroke-width:0.5;stroke-linecap:butt;stroke-linejoin:miter;stroke-dasharray:none"
         id="path5916" /><path
         d="m 294.2631,78.692 v 22.1998 H 316.463 V 78.692 Z"
         style="fill:none;stroke:#000000;stroke-width:0.5;stroke-linecap:butt;stroke-linejoin:miter;stroke-dasharray:none"
         id="path5918" /><path
         d="m 243.2815,103.9751 v 22.1998 h 22.1998 v -22.1998 z"
         style="fill:none;stroke:#000000;stroke-width:0.5;stroke-linecap:butt;stroke-linejoin:miter;stroke-dasharray:none"
         id="path5920" /><path
         d="m 294.3051,129.0095 v 22.1999 h 22.1998 v -22.1999 z"
         style="fill:none;stroke:#000000;stroke-width:0.5;stroke-linecap:butt;stroke-linejoin:miter;stroke-dasharray:none"
         id="path5922" /><path
         d="m 294.3051,154.5094 v 22.1999 h 22.1998 v -22.1999 z"
         style="fill:none;stroke:#000000;stroke-width:0.5;stroke-linecap:butt;stroke-linejoin:miter;stroke-dasharray:none"
         id="path5924" /><path
         d="m 294.3471,179.7925 v 22.1998 h 22.1998 v -22.1998 z"
         style="fill:none;stroke:#000000;stroke-width:0.5;stroke-linecap:butt;stroke-linejoin:miter;stroke-dasharray:none"
         id="path5926" /><path
         d="m 319.4915,53.1921 v 22.1998 h 22.1998 V 53.1921 Z"
         style="fill:none;stroke:#000000;stroke-width:0.5;stroke-linecap:butt;stroke-linejoin:miter;stroke-dasharray:none"
         id="path5928" /><path
         d="m 319.4915,78.692 v 22.1998 h 22.1998 V 78.692 Z"
         style="fill:none;stroke:#000000;stroke-width:0.5;stroke-linecap:butt;stroke-linejoin:miter;stroke-dasharray:none"
         id="path5930" /><path
         d="m 319.5334,103.9751 v 22.1998 h 22.1999 v -22.1998 z"
         style="fill:none;stroke:#000000;stroke-width:0.5;stroke-linecap:butt;stroke-linejoin:miter;stroke-dasharray:none"
         id="path5932" /><path
         d="m 319.5334,129.0095 v 22.1999 h 22.1999 v -22.1999 z"
         style="fill:none;stroke:#000000;stroke-width:0.5;stroke-linecap:butt;stroke-linejoin:miter;stroke-dasharray:none"
         id="path5934" /><path
         d="m 319.5334,154.5094 v 22.1999 h 22.1999 v -22.1999 z"
         style="fill:none;stroke:#000000;stroke-width:0.5;stroke-linecap:butt;stroke-linejoin:miter;stroke-dasharray:none"
         id="path5936" /><path
         d="m 319.5754,179.7925 v 22.1998 h 22.1998 v -22.1998 z"
         style="fill:none;stroke:#000000;stroke-width:0.5;stroke-linecap:butt;stroke-linejoin:miter;stroke-dasharray:none"
         id="path5938" /><path
         d="m 344.1529,53.1921 v 22.1998 h 22.1998 V 53.1921 Z"
         style="fill:none;stroke:#000000;stroke-width:0.5;stroke-linecap:butt;stroke-linejoin:miter;stroke-dasharray:none"
         id="path5940" /><path
         d="m 344.1529,78.692 v 22.1998 h 22.1998 V 78.692 Z"
         style="fill:none;stroke:#000000;stroke-width:0.5;stroke-linecap:butt;stroke-linejoin:miter;stroke-dasharray:none"
         id="path5942" /><path
         d="m 344.1949,103.9751 v 22.1998 h 22.1998 v -22.1998 z"
         style="fill:none;stroke:#000000;stroke-width:0.5;stroke-linecap:butt;stroke-linejoin:miter;stroke-dasharray:none"
         id="path5944" /><path
         d="m 344.1949,129.0095 v 22.1999 h 22.1998 v -22.1999 z"
         style="fill:none;stroke:#000000;stroke-width:0.5;stroke-linecap:butt;stroke-linejoin:miter;stroke-dasharray:none"
         id="path5946" /><path
         d="m 344.1949,154.5094 v 22.1999 h 22.1998 v -22.1999 z"
         style="fill:none;stroke:#000000;stroke-width:0.5;stroke-linecap:butt;stroke-linejoin:miter;stroke-dasharray:none"
         id="path5948" /><path
         d="m 344.2368,179.7925 v 22.1998 h 22.1998 v -22.1998 z"
         style="fill:none;stroke:#000000;stroke-width:0.5;stroke-linecap:butt;stroke-linejoin:miter;stroke-dasharray:none"
         id="path5950" /><path
         d="m 289.5352,214.7987 a 11.1002,11.1002 0 0 1 11.1002,11.1002 11.1002,11.1002 0 1 1 -11.1002,-11.1002 z"
         style="fill:none;stroke:#000000;stroke-width:0.7087;stroke-linecap:butt;stroke-linejoin:miter;stroke-dasharray:none"
         id="path5952" /><text
         x="284.45331"
         y="230.03259"
         id="text5956"><tspan
           font-family="'Proxima Nova Rg'"
           font-size="12px"
           fill="#000000"
           id="tspan5954">18</tspan></text><path
         d="m 219.2317,36.2808 5.0889,-19.0333 h 8.8064 c 1.6323,0 2.8409,0.1551 3.6167,0.4697 0.781,0.3101 1.3225,0.8904 1.627,1.7323 0.3032,0.8462 0.29,1.8784 -0.0346,3.0924 -0.2819,1.0544 -0.729,1.9671 -1.34,2.7336 -0.6082,0.7709 -1.3314,1.3912 -2.172,1.8697 -0.5304,0.3012 -1.219,0.5538 -2.0566,0.7532 0.5663,0.2347 0.9625,0.4651 1.1864,0.6999 0.1496,0.1551 0.3423,0.4918 0.5763,1.0013 0.23,0.5095 0.3715,0.9039 0.4202,1.183 l 1.0978,5.4982 h -5.9717 l -1.2709,-5.8039 c -0.1569,-0.7532 -0.3451,-1.2405 -0.5634,-1.4665 -0.304,-0.2924 -0.6989,-0.4386 -1.1806,-0.4386 h -0.4658 l -2.0611,7.709 z m 8.3236,-11.2977 h 2.2334 c 0.2389,0 0.7324,-0.0886 1.4713,-0.2614 0.3705,-0.0753 0.7104,-0.2747 1.0159,-0.5981 0.3094,-0.3234 0.5192,-0.6911 0.6306,-1.1077 0.1646,-0.6158 0.1162,-1.0899 -0.1465,-1.4177 -0.2615,-0.3323 -0.8746,-0.4962 -1.842,-0.4962 h -2.325 z m 24.0035,-7.7356 h 5.279 l -3.0312,11.3376 c -0.2998,1.1209 -0.7433,2.1842 -1.3243,3.181 -0.5823,1.0013 -1.3093,1.8742 -2.1823,2.6229 -0.873,0.7487 -1.7174,1.2715 -2.5357,1.5772 -1.1397,0.4209 -2.4308,0.6336 -3.8679,0.6336 -0.8321,0 -1.7221,-0.0664 -2.671,-0.195 -0.949,-0.1285 -1.7044,-0.3854 -2.2622,-0.7709 -0.5578,-0.3854 -1.0173,-0.9304 -1.3731,-1.6392 -0.36,-0.7089 -0.5387,-1.44 -0.5404,-2.1931 -0.003,-1.2095 0.1204,-2.2817 0.3704,-3.2165 l 3.0313,-11.3376 h 5.2789 l -3.1035,11.6078 c -0.2772,1.0367 -0.2351,1.8475 0.1232,2.4279 0.3612,0.5848 0.9996,0.8772 1.9153,0.8772 0.9037,0 1.6933,-0.2879 2.3649,-0.8639 0.6664,-0.5715 1.1431,-1.3868 1.425,-2.4412 z m 2.4616,12.7376 5.1099,-0.35 c -0.1341,0.9038 -0.096,1.5949 0.1128,2.0646 0.3406,0.7664 1.0138,1.1519 2.025,1.1519 0.7525,0 1.3859,-0.1949 1.8973,-0.5892 0.5156,-0.3944 0.8406,-0.8507 0.9792,-1.3691 0.1315,-0.4918 0.0588,-0.9348 -0.2231,-1.3246 -0.2819,-0.39 -1.0845,-0.7532 -2.4043,-1.1033 -2.1631,-0.5759 -3.6051,-1.3468 -4.3354,-2.3082 -0.7394,-0.957 -0.9101,-2.1798 -0.5121,-3.6685 0.2606,-0.9746 0.7618,-1.8962 1.5036,-2.7646 0.7429,-0.8727 1.6897,-1.5551 2.8455,-2.0513 1.1559,-0.4962 2.6235,-0.7443 4.4031,-0.7443 2.1857,0 3.729,0.4519 4.6327,1.3602 0.905,0.9038 1.2008,2.3436 0.8914,4.3197 l -5.0561,0.3278 c 0.0995,-0.8639 -0.0109,-1.4931 -0.3287,-1.8829 -0.3205,-0.3944 -0.8536,-0.5893 -1.5981,-0.5893 -0.6131,0 -1.118,0.1462 -1.5055,0.4342 -0.3876,0.288 -0.6376,0.6425 -0.7489,1.0589 -0.0806,0.3012 -0.0254,0.5715 0.1602,0.8152 0.1754,0.2525 0.7029,0.4829 1.5765,0.7 2.161,0.5538 3.6628,1.1165 4.5065,1.6836 0.8476,0.5671 1.389,1.2671 1.6178,2.1089 0.2299,0.8374 0.2058,1.7766 -0.0726,2.8178 -0.3258,1.2184 -0.9292,2.3437 -1.8104,3.376 -0.8839,1.0279 -1.9376,1.812 -3.1706,2.3437 -1.229,0.5317 -2.6696,0.7975 -4.3258,0.7975 -2.9063,0 -4.7537,-0.6247 -5.5395,-1.8697 -0.7859,-1.2449 -0.996,-2.8266 -0.6304,-4.745 z m 19.5961,-12.7376 h 5.279 l -1.7769,6.6457 h 5.7807 l 1.7768,-6.6457 h 5.303 l -5.0889,19.0333 h -5.303 l 2.0612,-7.709 h -5.7807 l -2.0611,7.709 h -5.279 z m 23.881,0 h 5.279 l -1.7769,6.6457 h 5.7807 l 1.7768,-6.6457 h 5.303 l -5.0889,19.0333 h -5.303 l 2.0612,-7.709 h -5.7807 l -2.0611,7.709 h -5.279 z m 14.6656,9.5299 c 0.8303,-3.1057 2.2534,-5.5247 4.2721,-7.2527 2.0198,-1.7323 4.4165,-2.5962 7.1954,-2.5962 2.8465,0 4.8127,0.8507 5.8997,2.5475 1.0859,1.7013 1.217,4.0849 0.3984,7.1463 -0.5946,2.2241 -1.4159,4.0451 -2.469,5.4672 -1.053,1.4222 -2.3246,2.5299 -3.8066,3.3229 -1.486,0.793 -3.176,1.1874 -5.075,1.1874 -1.9269,0 -3.4321,-0.3412 -4.5157,-1.0234 -1.0784,-0.6867 -1.8165,-1.7678 -2.2052,-3.2476 -0.3898,-1.4753 -0.2888,-3.3273 0.3059,-5.5514 z m 5.2754,0.0134 c -0.5129,1.9183 -0.56,3.3006 -0.1429,4.138 0.4211,0.8373 1.1844,1.2582 2.2911,1.2582 1.1347,0 2.1287,-0.412 2.9689,-1.2317 0.8454,-0.824 1.5492,-2.2949 2.119,-4.426 0.4785,-1.7899 0.5015,-3.0968 0.0729,-3.9209 -0.4314,-0.8285 -1.2011,-1.2406 -2.3158,-1.2406 -1.067,0 -2.0394,0.4209 -2.9082,1.2583 -0.8729,0.8373 -1.5673,2.2285 -2.085,4.1647 z m 26.9791,-9.5433 h 5.279 l -3.0313,11.3376 c -0.2997,1.1209 -0.7432,2.1842 -1.3242,3.181 -0.5823,1.0013 -1.3093,1.8742 -2.1823,2.6229 -0.873,0.7487 -1.7174,1.2715 -2.5358,1.5772 -1.1396,0.4209 -2.4307,0.6336 -3.8679,0.6336 -0.832,0 -1.722,-0.0664 -2.6709,-0.195 -0.949,-0.1285 -1.7044,-0.3854 -2.2622,-0.7709 -0.5579,-0.3854 -1.0173,-0.9304 -1.3732,-1.6392 -0.3599,-0.7089 -0.5386,-1.44 -0.5403,-2.1931 -0.003,-1.2095 0.1204,-2.2817 0.3703,-3.2165 l 3.0313,-11.3376 h 5.279 l -3.1036,11.6078 c -0.2771,1.0367 -0.2351,1.8475 0.1233,2.4279 0.3612,0.5848 0.9996,0.8772 1.9153,0.8772 0.9037,0 1.6933,-0.2879 2.3649,-0.8639 0.6664,-0.5715 1.1431,-1.3868 1.425,-2.4412 z m 1.7577,19.0333 5.0889,-19.0333 h 8.8064 c 1.6322,0 2.8408,0.1551 3.6167,0.4697 0.781,0.3101 1.3225,0.8904 1.627,1.7323 0.3032,0.8462 0.2899,1.8784 -0.0346,3.0924 -0.282,1.0544 -0.729,1.9671 -1.34,2.7336 -0.6082,0.7709 -1.3314,1.3912 -2.172,1.8697 -0.5304,0.3012 -1.219,0.5538 -2.0566,0.7532 0.5663,0.2347 0.9625,0.4651 1.1863,0.6999 0.1497,0.1551 0.3423,0.4918 0.5763,1.0013 0.2301,0.5095 0.3715,0.9039 0.4203,1.183 l 1.0978,5.4982 h -5.9717 l -1.2709,-5.8039 c -0.157,-0.7532 -0.3451,-1.2405 -0.5634,-1.4665 -0.304,-0.2924 -0.6989,-0.4386 -1.1806,-0.4386 h -0.4658 l -2.0612,7.709 z m 8.3236,-11.2977 h 2.2334 c 0.2389,0 0.7324,-0.0886 1.4713,-0.2614 0.3705,-0.0753 0.7104,-0.2747 1.0158,-0.5981 0.3095,-0.3234 0.5193,-0.6911 0.6307,-1.1077 0.1646,-0.6158 0.1161,-1.0899 -0.1465,-1.4177 -0.2616,-0.3323 -0.8746,-0.4962 -1.842,-0.4962 h -2.325 z"
         style="fill:#000000;fill-rule:evenodd"
         id="path5958" /><path
         d="M 393.4494,245.19 V 4.252 H 577.6988 V 245.19 Z"
         style="fill:none;stroke:#ff0000;stroke-width:0.0709;stroke-linecap:butt;stroke-linejoin:miter;stroke-dasharray:none"
         id="path5960" /><path
         d="M 407.6541,48.7556 V 204.6427 H 563.5046 V 48.7556 Z"
         style="fill:none;stroke:#000000;stroke-width:1.4173;stroke-linecap:butt;stroke-linejoin:miter;stroke-dasharray:none"
         id="path5962" /><path
         d="m 412.0384,53.1921 v 22.1998 h 22.1998 V 53.1921 Z"
         style="fill:none;stroke:#000000;stroke-width:0.5;stroke-linecap:butt;stroke-linejoin:miter;stroke-dasharray:none"
         id="path5964" /><path
         d="m 412.0384,78.692 v 22.1998 h 22.1998 V 78.692 Z"
         style="fill:none;stroke:#000000;stroke-width:0.5;stroke-linecap:butt;stroke-linejoin:miter;stroke-dasharray:none"
         id="path5966" /><path
         d="m 412.0804,103.9751 v 22.1998 h 22.1998 v -22.1998 z"
         style="fill:none;stroke:#000000;stroke-width:0.5;stroke-linecap:butt;stroke-linejoin:miter;stroke-dasharray:none"
         id="path5968" /><path
         d="m 412.0804,129.0095 v 22.1999 h 22.1998 v -22.1999 z"
         style="fill:none;stroke:#000000;stroke-width:0.5;stroke-linecap:butt;stroke-linejoin:miter;stroke-dasharray:none"
         id="path5970" /><path
         d="m 412.0804,154.5094 v 22.1999 h 22.1998 v -22.1999 z"
         style="fill:none;stroke:#000000;stroke-width:0.5;stroke-linecap:butt;stroke-linejoin:miter;stroke-dasharray:none"
         id="path5972" /><path
         d="m 412.1223,179.7925 v 22.1998 h 22.1998 v -22.1998 z"
         style="fill:none;stroke:#000000;stroke-width:0.5;stroke-linecap:butt;stroke-linejoin:miter;stroke-dasharray:none"
         id="path5974" /><path
         d="m 437.6398,53.1921 v 22.1998 h 22.1998 V 53.1921 Z"
         style="fill:none;stroke:#000000;stroke-width:0.5;stroke-linecap:butt;stroke-linejoin:miter;stroke-dasharray:none"
         id="path5976" /><path
         d="m 437.6398,78.692 v 22.1998 h 22.1998 V 78.692 Z"
         style="fill:none;stroke:#000000;stroke-width:0.5;stroke-linecap:butt;stroke-linejoin:miter;stroke-dasharray:none"
         id="path5978" /><path
         d="m 437.6818,129.0095 v 22.1999 h 22.1998 v -22.1999 z"
         style="fill:none;stroke:#000000;stroke-width:0.5;stroke-linecap:butt;stroke-linejoin:miter;stroke-dasharray:none"
         id="path5980" /><path
         d="m 437.6818,154.5094 v 22.1999 h 22.1998 v -22.1999 z"
         style="fill:none;stroke:#000000;stroke-width:0.5;stroke-linecap:butt;stroke-linejoin:miter;stroke-dasharray:none"
         id="path5982" /><path
         d="m 437.7237,179.7925 v 22.1998 h 22.1998 v -22.1998 z"
         style="fill:none;stroke:#000000;stroke-width:0.5;stroke-linecap:butt;stroke-linejoin:miter;stroke-dasharray:none"
         id="path5984" /><path
         d="m 463.4351,53.1921 v 22.1998 h 22.1998 V 53.1921 Z"
         style="fill:none;stroke:#000000;stroke-width:0.5;stroke-linecap:butt;stroke-linejoin:miter;stroke-dasharray:none"
         id="path5986" /><path
         d="m 463.4351,78.692 v 22.1998 h 22.1998 V 78.692 Z"
         style="fill:none;stroke:#000000;stroke-width:0.5;stroke-linecap:butt;stroke-linejoin:miter;stroke-dasharray:none"
         id="path5988" /><path
         d="m 463.477,129.0095 v 22.1999 h 22.1999 v -22.1999 z"
         style="fill:none;stroke:#000000;stroke-width:0.5;stroke-linecap:butt;stroke-linejoin:miter;stroke-dasharray:none"
         id="path5990" /><path
         d="m 463.477,154.5094 v 22.1999 h 22.1999 v -22.1999 z"
         style="fill:none;stroke:#000000;stroke-width:0.5;stroke-linecap:butt;stroke-linejoin:miter;stroke-dasharray:none"
         id="path5992" /><path
         d="m 463.519,179.7925 v 22.1998 h 22.1998 v -22.1998 z"
         style="fill:none;stroke:#000000;stroke-width:0.5;stroke-linecap:butt;stroke-linejoin:miter;stroke-dasharray:none"
         id="path5994" /><path
         d="m 488.6634,53.1921 v 22.1998 h 22.1998 V 53.1921 Z"
         style="fill:none;stroke:#000000;stroke-width:0.5;stroke-linecap:butt;stroke-linejoin:miter;stroke-dasharray:none"
         id="path5996" /><path
         d="m 488.6634,78.692 v 22.1998 h 22.1998 V 78.692 Z"
         style="fill:none;stroke:#000000;stroke-width:0.5;stroke-linecap:butt;stroke-linejoin:miter;stroke-dasharray:none"
         id="path5998" /><path
         d="m 488.7054,103.9751 v 22.1998 h 22.1998 v -22.1998 z"
         style="fill:none;stroke:#000000;stroke-width:0.5;stroke-linecap:butt;stroke-linejoin:miter;stroke-dasharray:none"
         id="path6000" /><path
         d="m 488.7054,129.0095 v 22.1999 h 22.1998 v -22.1999 z"
         style="fill:none;stroke:#000000;stroke-width:0.5;stroke-linecap:butt;stroke-linejoin:miter;stroke-dasharray:none"
         id="path6002" /><path
         d="m 488.7054,154.5094 v 22.1999 h 22.1998 v -22.1999 z"
         style="fill:none;stroke:#000000;stroke-width:0.5;stroke-linecap:butt;stroke-linejoin:miter;stroke-dasharray:none"
         id="path6004" /><path
         d="m 488.7473,179.7925 v 22.1998 h 22.1998 v -22.1998 z"
         style="fill:none;stroke:#000000;stroke-width:0.5;stroke-linecap:butt;stroke-linejoin:miter;stroke-dasharray:none"
         id="path6006" /><path
         d="m 513.8918,53.1921 v 22.1998 h 22.1998 V 53.1921 Z"
         style="fill:none;stroke:#000000;stroke-width:0.5;stroke-linecap:butt;stroke-linejoin:miter;stroke-dasharray:none"
         id="path6008" /><path
         d="m 513.8918,78.692 v 22.1998 h 22.1998 V 78.692 Z"
         style="fill:none;stroke:#000000;stroke-width:0.5;stroke-linecap:butt;stroke-linejoin:miter;stroke-dasharray:none"
         id="path6010" /><path
         d="m 513.9337,103.9751 v 22.1998 h 22.1998 v -22.1998 z"
         style="fill:none;stroke:#000000;stroke-width:0.5;stroke-linecap:butt;stroke-linejoin:miter;stroke-dasharray:none"
         id="path6012" /><path
         d="m 513.9337,129.0095 v 22.1999 h 22.1998 v -22.1999 z"
         style="fill:none;stroke:#000000;stroke-width:0.5;stroke-linecap:butt;stroke-linejoin:miter;stroke-dasharray:none"
         id="path6014" /><path
         d="m 513.9337,154.5094 v 22.1999 h 22.1998 v -22.1999 z"
         style="fill:none;stroke:#000000;stroke-width:0.5;stroke-linecap:butt;stroke-linejoin:miter;stroke-dasharray:none"
         id="path6016" /><path
         d="m 513.9757,179.7925 v 22.1998 h 22.1998 v -22.1998 z"
         style="fill:none;stroke:#000000;stroke-width:0.5;stroke-linecap:butt;stroke-linejoin:miter;stroke-dasharray:none"
         id="path6018" /><path
         d="M 538.5532,53.1921 V 75.3919 H 560.753 V 53.1921 Z"
         style="fill:none;stroke:#000000;stroke-width:0.5;stroke-linecap:butt;stroke-linejoin:miter;stroke-dasharray:none"
         id="path6020" /><path
         d="m 538.5532,78.692 v 22.1998 H 560.753 V 78.692 Z"
         style="fill:none;stroke:#000000;stroke-width:0.5;stroke-linecap:butt;stroke-linejoin:miter;stroke-dasharray:none"
         id="path6022" /><path
         d="m 538.5951,103.9751 v 22.1998 h 22.1999 v -22.1998 z"
         style="fill:none;stroke:#000000;stroke-width:0.5;stroke-linecap:butt;stroke-linejoin:miter;stroke-dasharray:none"
         id="path6024" /><path
         d="m 538.5951,129.0095 v 22.1999 h 22.1999 v -22.1999 z"
         style="fill:none;stroke:#000000;stroke-width:0.5;stroke-linecap:butt;stroke-linejoin:miter;stroke-dasharray:none"
         id="path6026" /><path
         d="m 538.5951,154.5094 v 22.1999 h 22.1999 v -22.1999 z"
         style="fill:none;stroke:#000000;stroke-width:0.5;stroke-linecap:butt;stroke-linejoin:miter;stroke-dasharray:none"
         id="path6028" /><path
         d="m 538.6371,179.7925 v 22.1998 h 22.1998 v -22.1998 z"
         style="fill:none;stroke:#000000;stroke-width:0.5;stroke-linecap:butt;stroke-linejoin:miter;stroke-dasharray:none"
         id="path6030" /><path
         d="m 483.9355,214.7987 a 11.1002,11.1002 0 0 1 11.1002,11.1002 11.1002,11.1002 0 1 1 -11.1002,-11.1002 z"
         style="fill:none;stroke:#000000;stroke-width:0.7087;stroke-linecap:butt;stroke-linejoin:miter;stroke-dasharray:none"
         id="path6032" /><text
         x="479.1626"
         y="229.9606"
         id="text6036"><tspan
           font-family="'Proxima Nova Rg'"
           font-size="12px"
           fill="#000000"
           id="tspan6034">21</tspan></text><path
         d="m 413.632,36.2808 5.0889,-19.0333 h 8.8064 c 1.6323,0 2.8409,0.1551 3.6167,0.4697 0.781,0.3101 1.3225,0.8904 1.627,1.7323 0.3032,0.8462 0.29,1.8784 -0.0346,3.0924 -0.2819,1.0544 -0.729,1.9671 -1.34,2.7336 -0.6082,0.7709 -1.3314,1.3912 -2.172,1.8697 -0.5304,0.3012 -1.219,0.5538 -2.0566,0.7532 0.5663,0.2347 0.9625,0.4651 1.1863,0.6999 0.1497,0.1551 0.3424,0.4918 0.5764,1.0013 0.23,0.5095 0.3714,0.9039 0.4202,1.183 l 1.0978,5.4982 h -5.9717 l -1.2709,-5.8039 c -0.1569,-0.7532 -0.3451,-1.2405 -0.5634,-1.4665 -0.304,-0.2924 -0.6989,-0.4386 -1.1806,-0.4386 h -0.4658 l -2.0611,7.709 z m 8.3236,-11.2977 h 2.2334 c 0.2389,0 0.7324,-0.0886 1.4713,-0.2614 0.3705,-0.0753 0.7104,-0.2747 1.0158,-0.5981 0.3095,-0.3234 0.5193,-0.6911 0.6307,-1.1077 0.1646,-0.6158 0.1162,-1.0899 -0.1465,-1.4177 -0.2615,-0.3323 -0.8746,-0.4962 -1.842,-0.4962 h -2.325 z m 24.0035,-7.7356 h 5.279 l -3.0313,11.3376 c -0.2997,1.1209 -0.7432,2.1842 -1.3242,3.181 -0.5823,1.0013 -1.3093,1.8742 -2.1823,2.6229 -0.873,0.7487 -1.7174,1.2715 -2.5357,1.5772 -1.1397,0.4209 -2.4308,0.6336 -3.868,0.6336 -0.832,0 -1.722,-0.0664 -2.6709,-0.195 -0.949,-0.1285 -1.7044,-0.3854 -2.2622,-0.7709 -0.5579,-0.3854 -1.0173,-0.9304 -1.3732,-1.6392 -0.3599,-0.7089 -0.5386,-1.44 -0.5403,-2.1931 -0.003,-1.2095 0.1204,-2.2817 0.3704,-3.2165 l 3.0312,-11.3376 h 5.279 l -3.1036,11.6078 c -0.2771,1.0367 -0.2351,1.8475 0.1233,2.4279 0.3612,0.5848 0.9996,0.8772 1.9153,0.8772 0.9037,0 1.6933,-0.2879 2.3649,-0.8639 0.6664,-0.5715 1.1431,-1.3868 1.425,-2.4412 z m 2.4616,12.7376 5.1099,-0.35 c -0.1342,0.9038 -0.096,1.5949 0.1128,2.0646 0.3406,0.7664 1.0138,1.1519 2.025,1.1519 0.7525,0 1.3859,-0.1949 1.8973,-0.5892 0.5155,-0.3944 0.8406,-0.8507 0.9792,-1.3691 0.1315,-0.4918 0.0588,-0.9348 -0.2232,-1.3246 -0.2818,-0.39 -1.0845,-0.7532 -2.4042,-1.1033 -2.1631,-0.5759 -3.6051,-1.3468 -4.3354,-2.3082 -0.7394,-0.957 -0.9101,-2.1798 -0.5121,-3.6685 0.2606,-0.9746 0.7617,-1.8962 1.5035,-2.7646 0.7429,-0.8727 1.6898,-1.5551 2.8456,-2.0513 1.1559,-0.4962 2.6235,-0.7443 4.4031,-0.7443 2.1857,0 3.729,0.4519 4.6327,1.3602 0.905,0.9038 1.2008,2.3436 0.8914,4.3197 l -5.0561,0.3278 c 0.0995,-0.8639 -0.0109,-1.4931 -0.3287,-1.8829 -0.3205,-0.3944 -0.8536,-0.5893 -1.5981,-0.5893 -0.6131,0 -1.118,0.1462 -1.5055,0.4342 -0.3876,0.288 -0.6376,0.6425 -0.749,1.0589 -0.0805,0.3012 -0.0253,0.5715 0.1603,0.8152 0.1753,0.2525 0.7029,0.4829 1.5765,0.7 2.161,0.5538 3.6628,1.1165 4.5064,1.6836 0.8477,0.5671 1.389,1.2671 1.6179,2.1089 0.2299,0.8374 0.2058,1.7766 -0.0726,2.8178 -0.3258,1.2184 -0.9292,2.3437 -1.8104,3.376 -0.8839,1.0279 -1.9376,1.812 -3.1706,2.3437 -1.229,0.5317 -2.6696,0.7975 -4.3258,0.7975 -2.9063,0 -4.7537,-0.6247 -5.5395,-1.8697 -0.7859,-1.2449 -0.996,-2.8266 -0.6304,-4.745 z m 19.5961,-12.7376 h 5.2789 l -1.7768,6.6457 h 5.7807 l 1.7768,-6.6457 h 5.303 l -5.0889,19.0333 h -5.303 l 2.0612,-7.709 h -5.7807 l -2.0611,7.709 h -5.279 z m 23.881,0 h 5.2789 l -1.7768,6.6457 h 5.7807 l 1.7768,-6.6457 h 5.303 l -5.0889,19.0333 h -5.303 l 2.0612,-7.709 h -5.7807 l -2.0611,7.709 h -5.279 z m 14.6655,9.5299 c 0.8304,-3.1057 2.2535,-5.5247 4.2722,-7.2527 2.0198,-1.7323 4.4165,-2.5962 7.1953,-2.5962 2.8466,0 4.8128,0.8507 5.8998,2.5475 1.0859,1.7013 1.217,4.0849 0.3984,7.1463 -0.5946,2.2241 -1.416,4.0451 -2.469,5.4672 -1.053,1.4222 -2.3246,2.5299 -3.8066,3.3229 -1.486,0.793 -3.176,1.1874 -5.075,1.1874 -1.9269,0 -3.4321,-0.3412 -4.5157,-1.0234 -1.0784,-0.6867 -1.8165,-1.7678 -2.2052,-3.2476 -0.3898,-1.4753 -0.2888,-3.3273 0.3058,-5.5514 z m 5.2755,0.0134 c -0.5129,1.9183 -0.56,3.3006 -0.1429,4.138 0.4211,0.8373 1.1844,1.2582 2.2911,1.2582 1.1347,0 2.1287,-0.412 2.9688,-1.2317 0.8454,-0.824 1.5493,-2.2949 2.1191,-4.426 0.4785,-1.7899 0.5015,-3.0968 0.0728,-3.9209 -0.4313,-0.8285 -1.201,-1.2406 -2.3157,-1.2406 -1.067,0 -2.0395,0.4209 -2.9082,1.2583 -0.8729,0.8373 -1.5673,2.2285 -2.085,4.1647 z m 26.9791,-9.5433 h 5.279 l -3.0313,11.3376 c -0.2997,1.1209 -0.7432,2.1842 -1.3242,3.181 -0.5823,1.0013 -1.3093,1.8742 -2.1823,2.6229 -0.8731,0.7487 -1.7175,1.2715 -2.5358,1.5772 -1.1396,0.4209 -2.4307,0.6336 -3.8679,0.6336 -0.832,0 -1.722,-0.0664 -2.6709,-0.195 -0.949,-0.1285 -1.7045,-0.3854 -2.2623,-0.7709 -0.5578,-0.3854 -1.0173,-0.9304 -1.3731,-1.6392 -0.3599,-0.7089 -0.5386,-1.44 -0.5403,-2.1931 -0.003,-1.2095 0.1204,-2.2817 0.3703,-3.2165 l 3.0313,-11.3376 h 5.279 l -3.1036,11.6078 c -0.2772,1.0367 -0.2351,1.8475 0.1233,2.4279 0.3612,0.5848 0.9996,0.8772 1.9152,0.8772 0.9038,0 1.6934,-0.2879 2.365,-0.8639 0.6663,-0.5715 1.1431,-1.3868 1.425,-2.4412 z m 1.7577,19.0333 5.0889,-19.0333 h 8.8064 c 1.6322,0 2.8408,0.1551 3.6166,0.4697 0.7811,0.3101 1.3226,0.8904 1.627,1.7323 0.3032,0.8462 0.29,1.8784 -0.0346,3.0924 -0.2819,1.0544 -0.729,1.9671 -1.3399,2.7336 -0.6082,0.7709 -1.3314,1.3912 -2.172,1.8697 -0.5304,0.3012 -1.219,0.5538 -2.0566,0.7532 0.5663,0.2347 0.9625,0.4651 1.1863,0.6999 0.1497,0.1551 0.3423,0.4918 0.5763,1.0013 0.2301,0.5095 0.3715,0.9039 0.4202,1.183 l 1.0979,5.4982 h -5.9718 l -1.2708,-5.8039 c -0.157,-0.7532 -0.3452,-1.2405 -0.5634,-1.4665 -0.304,-0.2924 -0.699,-0.4386 -1.1806,-0.4386 h -0.4658 l -2.0612,7.709 z m 8.3236,-11.2977 h 2.2334 c 0.2389,0 0.7324,-0.0886 1.4712,-0.2614 0.3706,-0.0753 0.7105,-0.2747 1.0159,-0.5981 0.3094,-0.3234 0.5193,-0.6911 0.6306,-1.1077 0.1647,-0.6158 0.1162,-1.0899 -0.1464,-1.4177 -0.2616,-0.3323 -0.8746,-0.4962 -1.842,-0.4962 h -2.325 z"
         style="fill:#000000;fill-rule:evenodd"
         id="path6038" /><path
         d="M 587.9631,245.19 V 4.252 H 772.2125 V 245.19 Z"
         style="fill:none;stroke:#ff0000;stroke-width:0.0709;stroke-linecap:butt;stroke-linejoin:miter;stroke-dasharray:none"
         id="path6040" /><path
         d="M 602.1677,48.7556 V 204.6427 H 758.0183 V 48.7556 Z"
         style="fill:none;stroke:#000000;stroke-width:1.4173;stroke-linecap:butt;stroke-linejoin:miter;stroke-dasharray:none"
         id="path6042" /><path
         d="m 606.5521,53.1921 v 22.1998 h 22.1998 V 53.1921 Z"
         style="fill:none;stroke:#000000;stroke-width:0.5;stroke-linecap:butt;stroke-linejoin:miter;stroke-dasharray:none"
         id="path6044" /><path
         d="m 606.5521,78.692 v 22.1998 h 22.1998 V 78.692 Z"
         style="fill:none;stroke:#000000;stroke-width:0.5;stroke-linecap:butt;stroke-linejoin:miter;stroke-dasharray:none"
         id="path6046" /><path
         d="m 606.594,129.0095 v 22.1999 h 22.1999 v -22.1999 z"
         style="fill:none;stroke:#000000;stroke-width:0.5;stroke-linecap:butt;stroke-linejoin:miter;stroke-dasharray:none"
         id="path6048" /><path
         d="m 606.594,154.5094 v 22.1999 h 22.1999 v -22.1999 z"
         style="fill:none;stroke:#000000;stroke-width:0.5;stroke-linecap:butt;stroke-linejoin:miter;stroke-dasharray:none"
         id="path6050" /><path
         d="m 606.636,179.7925 v 22.1998 h 22.1998 v -22.1998 z"
         style="fill:none;stroke:#000000;stroke-width:0.5;stroke-linecap:butt;stroke-linejoin:miter;stroke-dasharray:none"
         id="path6052" /><path
         d="m 632.1535,53.1921 v 22.1998 h 22.1998 V 53.1921 Z"
         style="fill:none;stroke:#000000;stroke-width:0.5;stroke-linecap:butt;stroke-linejoin:miter;stroke-dasharray:none"
         id="path6054" /><path
         d="m 632.1535,78.692 v 22.1998 h 22.1998 V 78.692 Z"
         style="fill:none;stroke:#000000;stroke-width:0.5;stroke-linecap:butt;stroke-linejoin:miter;stroke-dasharray:none"
         id="path6056" /><path
         d="m 632.1954,129.0095 v 22.1999 h 22.1998 v -22.1999 z"
         style="fill:none;stroke:#000000;stroke-width:0.5;stroke-linecap:butt;stroke-linejoin:miter;stroke-dasharray:none"
         id="path6058" /><path
         d="m 632.1954,154.5094 v 22.1999 h 22.1998 v -22.1999 z"
         style="fill:none;stroke:#000000;stroke-width:0.5;stroke-linecap:butt;stroke-linejoin:miter;stroke-dasharray:none"
         id="path6060" /><path
         d="m 632.2374,179.7925 v 22.1998 h 22.1998 v -22.1998 z"
         style="fill:none;stroke:#000000;stroke-width:0.5;stroke-linecap:butt;stroke-linejoin:miter;stroke-dasharray:none"
         id="path6062" /><path
         d="m 657.9488,53.1921 v 22.1998 h 22.1998 V 53.1921 Z"
         style="fill:none;stroke:#000000;stroke-width:0.5;stroke-linecap:butt;stroke-linejoin:miter;stroke-dasharray:none"
         id="path6064" /><path
         d="m 657.9488,78.692 v 22.1998 h 22.1998 V 78.692 Z"
         style="fill:none;stroke:#000000;stroke-width:0.5;stroke-linecap:butt;stroke-linejoin:miter;stroke-dasharray:none"
         id="path6066" /><path
         d="m 657.9907,103.9751 v 22.1998 h 22.1998 v -22.1998 z"
         style="fill:none;stroke:#000000;stroke-width:0.5;stroke-linecap:butt;stroke-linejoin:miter;stroke-dasharray:none"
         id="path6068" /><path
         d="m 657.9907,129.0095 v 22.1999 h 22.1998 v -22.1999 z"
         style="fill:none;stroke:#000000;stroke-width:0.5;stroke-linecap:butt;stroke-linejoin:miter;stroke-dasharray:none"
         id="path6070" /><path
         d="m 657.9907,154.5094 v 22.1999 h 22.1998 v -22.1999 z"
         style="fill:none;stroke:#000000;stroke-width:0.5;stroke-linecap:butt;stroke-linejoin:miter;stroke-dasharray:none"
         id="path6072" /><path
         d="m 658.0327,179.7925 v 22.1998 h 22.1998 v -22.1998 z"
         style="fill:none;stroke:#000000;stroke-width:0.5;stroke-linecap:butt;stroke-linejoin:miter;stroke-dasharray:none"
         id="path6074" /><path
         d="m 683.1771,53.1921 v 22.1998 h 22.1998 V 53.1921 Z"
         style="fill:none;stroke:#000000;stroke-width:0.5;stroke-linecap:butt;stroke-linejoin:miter;stroke-dasharray:none"
         id="path6076" /><path
         d="m 683.1771,78.692 v 22.1998 h 22.1998 V 78.692 Z"
         style="fill:none;stroke:#000000;stroke-width:0.5;stroke-linecap:butt;stroke-linejoin:miter;stroke-dasharray:none"
         id="path6078" /><path
         d="m 683.2191,103.9751 v 22.1998 h 22.1998 v -22.1998 z"
         style="fill:none;stroke:#000000;stroke-width:0.5;stroke-linecap:butt;stroke-linejoin:miter;stroke-dasharray:none"
         id="path6080" /><path
         d="m 683.2191,129.0095 v 22.1999 h 22.1998 v -22.1999 z"
         style="fill:none;stroke:#000000;stroke-width:0.5;stroke-linecap:butt;stroke-linejoin:miter;stroke-dasharray:none"
         id="path6082" /><path
         d="m 683.2191,154.5094 v 22.1999 h 22.1998 v -22.1999 z"
         style="fill:none;stroke:#000000;stroke-width:0.5;stroke-linecap:butt;stroke-linejoin:miter;stroke-dasharray:none"
         id="path6084" /><path
         d="m 683.261,179.7925 v 22.1998 h 22.1998 v -22.1998 z"
         style="fill:none;stroke:#000000;stroke-width:0.5;stroke-linecap:butt;stroke-linejoin:miter;stroke-dasharray:none"
         id="path6086" /><path
         d="m 708.4054,53.1921 v 22.1998 h 22.1999 V 53.1921 Z"
         style="fill:none;stroke:#000000;stroke-width:0.5;stroke-linecap:butt;stroke-linejoin:miter;stroke-dasharray:none"
         id="path6088" /><path
         d="m 708.4054,78.692 v 22.1998 h 22.1999 V 78.692 Z"
         style="fill:none;stroke:#000000;stroke-width:0.5;stroke-linecap:butt;stroke-linejoin:miter;stroke-dasharray:none"
         id="path6090" /><path
         d="m 708.4474,103.9751 v 22.1998 h 22.1998 v -22.1998 z"
         style="fill:none;stroke:#000000;stroke-width:0.5;stroke-linecap:butt;stroke-linejoin:miter;stroke-dasharray:none"
         id="path6092" /><path
         d="m 708.4474,129.0095 v 22.1999 h 22.1998 v -22.1999 z"
         style="fill:none;stroke:#000000;stroke-width:0.5;stroke-linecap:butt;stroke-linejoin:miter;stroke-dasharray:none"
         id="path6094" /><path
         d="m 708.4474,154.5094 v 22.1999 h 22.1998 v -22.1999 z"
         style="fill:none;stroke:#000000;stroke-width:0.5;stroke-linecap:butt;stroke-linejoin:miter;stroke-dasharray:none"
         id="path6096" /><path
         d="m 708.4894,179.7925 v 22.1998 h 22.1998 v -22.1998 z"
         style="fill:none;stroke:#000000;stroke-width:0.5;stroke-linecap:butt;stroke-linejoin:miter;stroke-dasharray:none"
         id="path6098" /><path
         d="m 733.0669,53.1921 v 22.1998 h 22.1998 V 53.1921 Z"
         style="fill:none;stroke:#000000;stroke-width:0.5;stroke-linecap:butt;stroke-linejoin:miter;stroke-dasharray:none"
         id="path6100" /><path
         d="m 733.0669,78.692 v 22.1998 h 22.1998 V 78.692 Z"
         style="fill:none;stroke:#000000;stroke-width:0.5;stroke-linecap:butt;stroke-linejoin:miter;stroke-dasharray:none"
         id="path6102" /><path
         d="m 733.1088,103.9751 v 22.1998 h 22.1998 v -22.1998 z"
         style="fill:none;stroke:#000000;stroke-width:0.5;stroke-linecap:butt;stroke-linejoin:miter;stroke-dasharray:none"
         id="path6104" /><path
         d="m 733.1088,129.0095 v 22.1999 h 22.1998 v -22.1999 z"
         style="fill:none;stroke:#000000;stroke-width:0.5;stroke-linecap:butt;stroke-linejoin:miter;stroke-dasharray:none"
         id="path6106" /><path
         d="m 733.1088,154.5094 v 22.1999 h 22.1998 v -22.1999 z"
         style="fill:none;stroke:#000000;stroke-width:0.5;stroke-linecap:butt;stroke-linejoin:miter;stroke-dasharray:none"
         id="path6108" /><path
         d="m 733.1508,179.7925 v 22.1998 h 22.1998 v -22.1998 z"
         style="fill:none;stroke:#000000;stroke-width:0.5;stroke-linecap:butt;stroke-linejoin:miter;stroke-dasharray:none"
         id="path6110" /><path
         d="m 678.4492,214.7987 a 11.1002,11.1002 0 0 1 11.1002,11.1002 11.1002,11.1002 0 1 1 -11.1002,-11.1002 z"
         style="fill:none;stroke:#000000;stroke-width:0.7087;stroke-linecap:butt;stroke-linejoin:miter;stroke-dasharray:none"
         id="path6112" /><text
         x="672.37567"
         y="229.9606"
         id="text6116"><tspan
           font-family="'Proxima Nova Rg'"
           font-size="12px"
           fill="#000000"
           id="tspan6114">24</tspan></text><path
         d="m 608.1457,36.2808 5.0889,-19.0333 h 8.8064 c 1.6322,0 2.8408,0.1551 3.6166,0.4697 0.7811,0.3101 1.3226,0.8904 1.627,1.7323 0.3033,0.8462 0.29,1.8784 -0.0346,3.0924 -0.2819,1.0544 -0.7289,1.9671 -1.3399,2.7336 -0.6082,0.7709 -1.3314,1.3912 -2.172,1.8697 -0.5304,0.3012 -1.219,0.5538 -2.0566,0.7532 0.5663,0.2347 0.9625,0.4651 1.1863,0.6999 0.1497,0.1551 0.3423,0.4918 0.5763,1.0013 0.2301,0.5095 0.3715,0.9039 0.4202,1.183 l 1.0979,5.4982 h -5.9717 l -1.2709,-5.8039 c -0.157,-0.7532 -0.3452,-1.2405 -0.5634,-1.4665 -0.304,-0.2924 -0.699,-0.4386 -1.1806,-0.4386 h -0.4658 l -2.0612,7.709 z m 8.3236,-11.2977 h 2.2334 c 0.2389,0 0.7324,-0.0886 1.4713,-0.2614 0.3705,-0.0753 0.7104,-0.2747 1.0158,-0.5981 0.3095,-0.3234 0.5193,-0.6911 0.6307,-1.1077 0.1646,-0.6158 0.1161,-1.0899 -0.1465,-1.4177 -0.2616,-0.3323 -0.8746,-0.4962 -1.842,-0.4962 h -2.325 z m 24.0035,-7.7356 h 5.279 l -3.0313,11.3376 c -0.2997,1.1209 -0.7432,2.1842 -1.3242,3.181 -0.5823,1.0013 -1.3093,1.8742 -2.1823,2.6229 -0.8731,0.7487 -1.7175,1.2715 -2.5358,1.5772 -1.1396,0.4209 -2.4307,0.6336 -3.8679,0.6336 -0.832,0 -1.722,-0.0664 -2.6709,-0.195 -0.949,-0.1285 -1.7045,-0.3854 -2.2623,-0.7709 -0.5578,-0.3854 -1.0173,-0.9304 -1.3731,-1.6392 -0.3599,-0.7089 -0.5386,-1.44 -0.5403,-2.1931 -0.003,-1.2095 0.1204,-2.2817 0.3703,-3.2165 l 3.0313,-11.3376 h 5.279 l -3.1036,11.6078 c -0.2772,1.0367 -0.2351,1.8475 0.1233,2.4279 0.3612,0.5848 0.9996,0.8772 1.9152,0.8772 0.9038,0 1.6934,-0.2879 2.365,-0.8639 0.6663,-0.5715 1.1431,-1.3868 1.425,-2.4412 z m 2.4616,12.7376 5.1098,-0.35 c -0.1341,0.9038 -0.0959,1.5949 0.1129,2.0646 0.3405,0.7664 1.0138,1.1519 2.025,1.1519 0.7525,0 1.3858,-0.1949 1.8973,-0.5892 0.5155,-0.3944 0.8406,-0.8507 0.9792,-1.3691 0.1315,-0.4918 0.0588,-0.9348 -0.2232,-1.3246 -0.2819,-0.39 -1.0845,-0.7532 -2.4043,-1.1033 -2.163,-0.5759 -3.6051,-1.3468 -4.3354,-2.3082 -0.7394,-0.957 -0.9101,-2.1798 -0.5121,-3.6685 0.2606,-0.9746 0.7618,-1.8962 1.5036,-2.7646 0.7429,-0.8727 1.6897,-1.5551 2.8456,-2.0513 1.1558,-0.4962 2.6235,-0.7443 4.4031,-0.7443 2.1857,0 3.729,0.4519 4.6327,1.3602 0.9049,0.9038 1.2007,2.3436 0.8914,4.3197 l -5.0562,0.3278 c 0.0996,-0.8639 -0.0109,-1.4931 -0.3286,-1.8829 -0.3205,-0.3944 -0.8537,-0.5893 -1.5982,-0.5893 -0.613,0 -1.1179,0.1462 -1.5055,0.4342 -0.3875,0.288 -0.6375,0.6425 -0.7489,1.0589 -0.0805,0.3012 -0.0254,0.5715 0.1603,0.8152 0.1753,0.2525 0.7029,0.4829 1.5765,0.7 2.161,0.5538 3.6627,1.1165 4.5064,1.6836 0.8476,0.5671 1.389,1.2671 1.6179,2.1089 0.2299,0.8374 0.2057,1.7766 -0.0727,2.8178 -0.3257,1.2184 -0.9292,2.3437 -1.8103,3.376 -0.8839,1.0279 -1.9376,1.812 -3.1707,2.3437 -1.2289,0.5317 -2.6696,0.7975 -4.3257,0.7975 -2.9063,0 -4.7537,-0.6247 -5.5396,-1.8697 -0.7858,-1.2449 -0.9959,-2.8266 -0.6303,-4.745 z m 19.596,-12.7376 h 5.279 l -1.7768,6.6457 h 5.7806 l 1.7769,-6.6457 h 5.3029 l -5.0889,19.0333 h -5.3029 l 2.0611,-7.709 h -5.7806 l -2.0612,7.709 h -5.2789 z m 23.881,0 h 5.279 l -1.7768,6.6457 h 5.7806 l 1.7769,-6.6457 h 5.3029 l -5.0889,19.0333 h -5.3029 l 2.0611,-7.709 h -5.7806 l -2.0612,7.709 h -5.2789 z m 14.6656,9.5299 c 0.8304,-3.1057 2.2535,-5.5247 4.2722,-7.2527 2.0198,-1.7323 4.4164,-2.5962 7.1953,-2.5962 2.8466,0 4.8127,0.8507 5.8998,2.5475 1.0858,1.7013 1.2169,4.0849 0.3984,7.1463 -0.5947,2.2241 -1.416,4.0451 -2.469,5.4672 -1.0531,1.4222 -2.3247,2.5299 -3.8066,3.3229 -1.486,0.793 -3.176,1.1874 -5.075,1.1874 -1.9269,0 -3.4322,-0.3412 -4.5157,-1.0234 -1.0784,-0.6867 -1.8166,-1.7678 -2.2052,-3.2476 -0.3898,-1.4753 -0.2888,-3.3273 0.3058,-5.5514 z m 5.2755,0.0134 c -0.5129,1.9183 -0.56,3.3006 -0.1429,4.138 0.4211,0.8373 1.1844,1.2582 2.2911,1.2582 1.1347,0 2.1287,-0.412 2.9688,-1.2317 0.8454,-0.824 1.5492,-2.2949 2.119,-4.426 0.4786,-1.7899 0.5015,-3.0968 0.0729,-3.9209 -0.4314,-0.8285 -1.201,-1.2406 -2.3157,-1.2406 -1.067,0 -2.0395,0.4209 -2.9083,1.2583 -0.8728,0.8373 -1.5673,2.2285 -2.0849,4.1647 z m 26.979,-9.5433 h 5.2791 l -3.0313,11.3376 c -0.2997,1.1209 -0.7433,2.1842 -1.3243,3.181 -0.5823,1.0013 -1.3093,1.8742 -2.1822,2.6229 -0.8731,0.7487 -1.7175,1.2715 -2.5358,1.5772 -1.1396,0.4209 -2.4307,0.6336 -3.8679,0.6336 -0.8321,0 -1.722,-0.0664 -2.6709,-0.195 -0.9491,-0.1285 -1.7045,-0.3854 -2.2623,-0.7709 -0.5578,-0.3854 -1.0173,-0.9304 -1.3731,-1.6392 -0.3599,-0.7089 -0.5387,-1.44 -0.5403,-2.1931 -0.003,-1.2095 0.1204,-2.2817 0.3703,-3.2165 l 3.0313,-11.3376 h 5.279 l -3.1036,11.6078 c -0.2772,1.0367 -0.2351,1.8475 0.1232,2.4279 0.3612,0.5848 0.9997,0.8772 1.9153,0.8772 0.9038,0 1.6934,-0.2879 2.365,-0.8639 0.6663,-0.5715 1.1431,-1.3868 1.425,-2.4412 z m 1.7578,19.0333 5.0888,-19.0333 h 8.8064 c 1.6323,0 2.8409,0.1551 3.6167,0.4697 0.781,0.3101 1.3226,0.8904 1.627,1.7323 0.3032,0.8462 0.29,1.8784 -0.0346,3.0924 -0.2819,1.0544 -0.729,1.9671 -1.3399,2.7336 -0.6083,0.7709 -1.3315,1.3912 -2.1721,1.8697 -0.5304,0.3012 -1.2189,0.5538 -2.0566,0.7532 0.5663,0.2347 0.9626,0.4651 1.1864,0.6999 0.1497,0.1551 0.3423,0.4918 0.5763,1.0013 0.2301,0.5095 0.3715,0.9039 0.4202,1.183 l 1.0979,5.4982 h -5.9718 l -1.2709,-5.8039 c -0.1569,-0.7532 -0.3451,-1.2405 -0.5634,-1.4665 -0.304,-0.2924 -0.6989,-0.4386 -1.1805,-0.4386 h -0.4659 l -2.0611,7.709 z m 8.3235,-11.2977 h 2.2335 c 0.2388,0 0.7323,-0.0886 1.4712,-0.2614 0.3706,-0.0753 0.7104,-0.2747 1.0159,-0.5981 0.3094,-0.3234 0.5192,-0.6911 0.6306,-1.1077 0.1647,-0.6158 0.1162,-1.0899 -0.1465,-1.4177 -0.2615,-0.3323 -0.8746,-0.4962 -1.8419,-0.4962 h -2.3251 z"
         style="fill:#000000;fill-rule:evenodd"
         id="path6118" /><path
         d="m 23.1664,103.9751 v 22.1998 h 46.8613 v -22.1998 z"
         style="fill:none;stroke:#000000;stroke-width:2.8346;stroke-linecap:butt;stroke-linejoin:miter;stroke-dasharray:none"
         id="path6120" /><path
         d="m 46.597,108.3506 a 6.7243,6.7243 0 0 1 6.7244,6.7244 6.7243,6.7243 0 1 1 -6.7244,-6.7244 z"
         style="fill:#000000;fill-rule:evenodd;stroke:#000000;stroke-width:0.2835;stroke-linecap:butt;stroke-linejoin:miter;stroke-dasharray:none"
         id="path6122" /><path
         d="m 269.6437,103.9751 v 22.1998 h 46.8612 v -22.1998 z"
         style="fill:none;stroke:#000000;stroke-width:2.8346;stroke-linecap:butt;stroke-linejoin:miter;stroke-dasharray:none"
         id="path6124" /><path
         d="m 294.3051,108.3506 a 6.7243,6.7243 0 0 1 6.7243,6.7244 6.7243,6.7243 0 1 1 -6.7243,-6.7244 z"
         style="fill:#000000;fill-rule:evenodd;stroke:#000000;stroke-width:0.2835;stroke-linecap:butt;stroke-linejoin:miter;stroke-dasharray:none"
         id="path6126" /><path
         d="m 437.6818,103.9751 v 22.1998 h 46.8612 v -22.1998 z"
         style="fill:none;stroke:#000000;stroke-width:2.8346;stroke-linecap:butt;stroke-linejoin:miter;stroke-dasharray:none"
         id="path6128" /><path
         d="m 461.1124,108.3506 a 6.7243,6.7243 0 0 1 6.7243,6.7244 6.7243,6.7243 0 1 1 -6.7243,-6.7244 z"
         style="fill:#000000;fill-rule:evenodd;stroke:#000000;stroke-width:0.2835;stroke-linecap:butt;stroke-linejoin:miter;stroke-dasharray:none"
         id="path6130" /><path
         d="m 606.594,103.9751 v 22.1998 h 46.8613 v -22.1998 z"
         style="fill:none;stroke:#000000;stroke-width:2.8346;stroke-linecap:butt;stroke-linejoin:miter;stroke-dasharray:none"
         id="path6132" /><path
         d="m 630.0247,108.3506 a 6.7243,6.7243 0 0 1 6.7243,6.7244 6.7243,6.7243 0 1 1 -6.7243,-6.7244 z"
         style="fill:#000000;fill-rule:evenodd;stroke:#000000;stroke-width:0.2835;stroke-linecap:butt;stroke-linejoin:miter;stroke-dasharray:none"
         id="path6134" /><path
         d="m 319.4915,53.1921 v 72.9828 h 22.2418 V 53.1921 Z"
         style="fill:#000000;fill-rule:evenodd;stroke:#000000;stroke-width:0.5;stroke-linecap:butt;stroke-linejoin:miter;stroke-dasharray:none"
         id="path6136" /><path
         d="m 366.3527,53.1921 v 72.9828 H 344.1949 V 53.1921 Z"
         style="fill:#000000;fill-rule:evenodd;stroke:#000000;stroke-width:0.5;stroke-linecap:butt;stroke-linejoin:miter;stroke-dasharray:none"
         id="path6138" /><path
         d="m 269.0768,129.0095 v 47.6998 h 22.1998 v -47.6998 z"
         style="fill:#000000;fill-rule:evenodd;stroke:#000000;stroke-width:0.5;stroke-linecap:butt;stroke-linejoin:miter;stroke-dasharray:none"
         id="path6140" /><path
         d="m 217.6381,53.1921 v 22.1998 h 47.8012 V 53.1921 Z"
         style="fill:#000000;fill-rule:evenodd;stroke:#000000;stroke-width:0.5;stroke-linecap:butt;stroke-linejoin:miter;stroke-dasharray:none"
         id="path6142" /><path
         d="m 269.0348,53.1921 v 47.6997 h 22.1998 V 53.1921 Z"
         style="fill:#000000;fill-rule:evenodd;stroke:#000000;stroke-width:0.5;stroke-linecap:butt;stroke-linejoin:miter;stroke-dasharray:none"
         id="path6144" /><path
         d="m 243.2395,78.692 v 47.4829 h 22.2418 V 78.692 Z"
         style="fill:#000000;fill-rule:evenodd;stroke:#000000;stroke-width:0.5;stroke-linecap:butt;stroke-linejoin:miter;stroke-dasharray:none"
         id="path6146" /><path
         d="m 217.6801,151.2094 v -22.1999 h 47.8012 v 22.1999 z"
         style="fill:#000000;fill-rule:evenodd;stroke:#000000;stroke-width:0.5;stroke-linecap:butt;stroke-linejoin:miter;stroke-dasharray:none"
         id="path6148" /><path
         d="m 341.7333,154.5094 v 22.1999 h -47.4282 v -22.1999 z"
         style="fill:#000000;fill-rule:evenodd;stroke:#000000;stroke-width:0.5;stroke-linecap:butt;stroke-linejoin:miter;stroke-dasharray:none"
         id="path6150" /><path
         d="m 412.0384,78.692 v 47.4829 h 22.2418 V 78.692 Z"
         style="fill:#000000;fill-rule:evenodd;stroke:#000000;stroke-width:0.5;stroke-linecap:butt;stroke-linejoin:miter;stroke-dasharray:none"
         id="path6152" /><path
         d="m 463.4351,53.1921 v 47.6997 h 22.1998 V 53.1921 Z"
         style="fill:#000000;fill-rule:evenodd;stroke:#000000;stroke-width:0.5;stroke-linecap:butt;stroke-linejoin:miter;stroke-dasharray:none"
         id="path6154" /><path
         d="M 536.0916,53.1921 V 75.3919 H 488.6634 V 53.1921 Z"
         style="fill:#000000;fill-rule:evenodd;stroke:#000000;stroke-width:0.5;stroke-linecap:butt;stroke-linejoin:miter;stroke-dasharray:none"
         id="path6156" /><path
         d="M 488.7054,151.2094 V 78.692 h 22.1578 v 72.5174 z"
         style="fill:#000000;fill-rule:evenodd;stroke:#000000;stroke-width:0.5;stroke-linecap:butt;stroke-linejoin:miter;stroke-dasharray:none"
         id="path6158" /><path
         d="m 536.1335,176.7093 v -47.6998 h -22.1998 v 47.6998 z"
         style="fill:#000000;fill-rule:evenodd;stroke:#000000;stroke-width:0.5;stroke-linecap:butt;stroke-linejoin:miter;stroke-dasharray:none"
         id="path6160" /><path
         d="m 536.0916,78.692 v 47.4829 H 513.9337 V 78.692 Z"
         style="fill:#000000;fill-rule:evenodd;stroke:#000000;stroke-width:0.5;stroke-linecap:butt;stroke-linejoin:miter;stroke-dasharray:none"
         id="path6162" /><path
         d="m 412.1223,201.9923 v -22.1998 h 73.5965 v 22.1998 z"
         style="fill:#000000;fill-rule:evenodd;stroke:#000000;stroke-width:0.5;stroke-linecap:butt;stroke-linejoin:miter;stroke-dasharray:none"
         id="path6164" /><path
         d="m 412.0804,129.0095 v 22.1999 h 73.5965 v -22.1999 z"
         style="fill:#000000;fill-rule:evenodd;stroke:#000000;stroke-width:0.5;stroke-linecap:butt;stroke-linejoin:miter;stroke-dasharray:none"
         id="path6166" /><path
         d="m 632.1535,53.1921 v 22.1998 h 73.2234 V 53.1921 Z"
         style="fill:#000000;fill-rule:evenodd;stroke:#000000;stroke-width:0.5;stroke-linecap:butt;stroke-linejoin:miter;stroke-dasharray:none"
         id="path6168" /><path
         d="M 632.1535,100.8918 V 78.692 h 73.2234 v 22.1998 z"
         style="fill:#000000;fill-rule:evenodd;stroke:#000000;stroke-width:0.5;stroke-linecap:butt;stroke-linejoin:miter;stroke-dasharray:none"
         id="path6170" /><path
         d="m 733.0669,53.1921 v 47.6997 h 22.1998 V 53.1921 Z"
         style="fill:#000000;fill-rule:evenodd;stroke:#000000;stroke-width:0.5;stroke-linecap:butt;stroke-linejoin:miter;stroke-dasharray:none"
         id="path6172" /><path
         d="m 708.4474,129.0095 v 22.1999 h 46.8612 v -22.1999 z"
         style="fill:#000000;fill-rule:evenodd;stroke:#000000;stroke-width:0.5;stroke-linecap:butt;stroke-linejoin:miter;stroke-dasharray:none"
         id="path6174" /><path
         d="m 708.4894,179.7925 v 22.1998 h 46.8612 v -22.1998 z"
         style="fill:#000000;fill-rule:evenodd;stroke:#000000;stroke-width:0.5;stroke-linecap:butt;stroke-linejoin:miter;stroke-dasharray:none"
         id="path6176" /><path
         d="m 657.9907,103.9751 v 47.2343 h 22.1998 v -47.2343 z"
         style="fill:#000000;fill-rule:evenodd;stroke:#000000;stroke-width:0.5;stroke-linecap:butt;stroke-linejoin:miter;stroke-dasharray:none"
         id="path6178" /><path
         d="m 705.4189,103.9751 v 72.7342 h -22.1998 v -72.7342 z"
         style="fill:#000000;fill-rule:evenodd;stroke:#000000;stroke-width:0.5;stroke-linecap:butt;stroke-linejoin:miter;stroke-dasharray:none"
         id="path6180" /><path
         d="m 657.9907,154.5094 v 47.4829 h 22.2418 v -47.4829 z"
         style="fill:#000000;fill-rule:evenodd;stroke:#000000;stroke-width:0.5;stroke-linecap:butt;stroke-linejoin:miter;stroke-dasharray:none"
         id="path6182" /><path
         d="m 99.7495,53.1921 v 72.9828 h 22.2417 V 53.1921 Z"
         style="fill:#000000;fill-rule:evenodd;stroke:#000000;stroke-width:0.5;stroke-linecap:butt;stroke-linejoin:miter;stroke-dasharray:none"
         id="path6184" /><path
         d="m 125.0198,103.9751 v 72.7342 h 22.1998 v -72.7342 z"
         style="fill:#000000;fill-rule:evenodd;stroke:#000000;stroke-width:0.5;stroke-linecap:butt;stroke-linejoin:miter;stroke-dasharray:none"
         id="path6186" /><path
         d="m 149.6392,78.692 v 47.4829 H 171.881 V 78.692 Z"
         style="fill:#000000;fill-rule:evenodd;stroke:#000000;stroke-width:0.5;stroke-linecap:butt;stroke-linejoin:miter;stroke-dasharray:none"
         id="path6188" /><path
         d="m 149.6812,176.7093 v -47.6998 h 22.1998 v 47.6998 z"
         style="fill:#000000;fill-rule:evenodd;stroke:#000000;stroke-width:0.5;stroke-linecap:butt;stroke-linejoin:miter;stroke-dasharray:none"
         id="path6190" /><path
         d="m 23.1664,129.0095 v 72.9828 h 22.2418 v -72.9828 z"
         style="fill:#000000;fill-rule:evenodd;stroke:#000000;stroke-width:0.5;stroke-linecap:butt;stroke-linejoin:miter;stroke-dasharray:none"
         id="path6192" /><path
         d="m 48.7678,154.5094 v 47.4829 h 22.2418 v -47.4829 z"
         style="fill:#000000;fill-rule:evenodd;stroke:#000000;stroke-width:0.5;stroke-linecap:butt;stroke-linejoin:miter;stroke-dasharray:none"
         id="path6194" /><path
         d="m 121.9912,154.5094 v 22.1999 H 74.5631 v -22.1999 z"
         style="fill:#000000;fill-rule:evenodd;stroke:#000000;stroke-width:0.5;stroke-linecap:butt;stroke-linejoin:miter;stroke-dasharray:none"
         id="path6196" /><path
         d="M 122.0332,201.9923 V 179.7925 H 74.605 v 22.1998 z"
         style="fill:#000000;fill-rule:evenodd;stroke:#000000;stroke-width:0.5;stroke-linecap:butt;stroke-linejoin:miter;stroke-dasharray:none"
         id="path6198" /></g></g></svg>
